# xmcd CD database file
#
# Track frame offsets:
#	150
#	18823
#	34885
#	53128
#	68768
#	89900
#	102170
#	117753
#	136798
#	153345
#
# Disc length: 2443 seconds
#
# Revision: 3
# Processed by: cddbd v1.5.1PL2 Copyright (c) Steve Scherf et al.
# Submitted via: CDex 1.51
#
DISCID=7b09890a
DTITLE=Maranatha - The Gift - A Colours Christmas
DYEAR=1986
DGENRE=Christmas
TTITLE0=Carol of the Bells
TTITLE1=O Come, O Come Emmanuel
TTITLE2=What Child is This?
TTITLE3=Jesu, Joy of Man's Desiring
TTITLE4=It Came Upon a Midnight Clear
TTITLE5=The Invitation/O Come, All Ye Faithful
TTITLE6=Bring a Torch
TTITLE7=Joy to the World
TTITLE8=Hark the Herald Angels Sing
TTITLE9=Angels We Have Heard on High/We Three Kings/God Rest Ye Merry Gentlemen (Medley)
EXTD=YEAR: 1986
EXTT0=
EXTT1=
EXTT2=
EXTT3=
EXTT4=
EXTT5=
EXTT6=
EXTT7=
EXTT8=
EXTT9=
PLAYORDER=
